<?xml version="1.0" encoding="UTF-8"?>
<svg id="Layer_1" xmlns="http://www.w3.org/2000/svg" version="1.1" viewBox="0 0 488.4 512.1">
  <!-- Generator: Adobe Illustrator 29.8.2, SVG Export Plug-In . SVG Version: 2.1.1 Build 3)  -->
  <defs>
    <style>
      .st0 {
        fill: #f26200;
      }
    </style>
  </defs>
  <path class="st0" d="M375.9,169.3v-60.6c16.4-7.7,26.9-24.1,27-42.2v-1.5c-.1-25.7-20.9-46.6-46.7-46.7h-1.4c-25.8.1-46.7,20.9-46.8,46.7v1.4c.1,18,10.5,34.3,26.7,42.1l.3.2v60.8c-23.1,3.5-45.1,13.2-63.3,27.9l.3-.2L105.1,67.2C120.2,10.9,46.7-25.2,11.4,21.2c-35.4,46.3,18.7,107.6,69,78.3l-.3.2,164.1,127.7c-14.5,21.8-22.2,47.4-22.2,73.5s9.1,55.1,24.5,76.9l-.3-.4-50,49.9c-4-1.2-8.2-1.9-12.3-2h-.1c-38.6,0-58,46.7-30.7,74,27.3,27.2,74,7.9,74-30.7-.1-4.3-.8-8.7-2.2-12.7v.3c.1,0,49.5-49.4,49.5-49.4,32.7,24.9,75,33.4,114.7,23,39.6-10.5,72.4-38.6,88.5-76.3,16.2-37.7,14.1-80.8-5.7-116.8-19.7-36-55.1-60.8-95.5-67.3l-.8-.2h.3ZM355.3,369.3c-60.9-.2-91.2-73.8-48-116.8,43.1-43,116.6-12.5,116.6,48.4h0c0,37.8-30.6,68.4-68.4,68.4h-.2Z"/>
</svg>