<?xml version="1.0" encoding="UTF-8"?>
<svg id="Layer_1" xmlns="http://www.w3.org/2000/svg" version="1.1" viewBox="0 0 500 284.8">
  <!-- Generator: Adobe Illustrator 29.8.2, SVG Export Plug-In . SVG Version: 2.1.1 Build 3)  -->
  <defs>
    <style>
      .st0 {
        fill: #ffffff;
      }
    </style>
  </defs>
  <g>
    <path class="st0" d="M0,156.4v22.2c171.7-10.2,44-15.5,0-22.2Z"/>
    <path class="st0" d="M0,193v21.8l1.4.4c130.8-12.1,93.3-16.5-1.4-22.2Z"/>
    <path class="st0" d="M0,0v71.7c107.7-3.6,108.2-9.7,52.4-17.1l10-12.2c68.9,10.6,64.6,27.9,15.1,36.6,16.6,5.8,75.4,16.6,4.3,38,11.6,3.1,76.8,19.3-4.3,33.7,12.8,5.8,81,14.1,2.9,35.1,20.2,3.3,72.2,14.4,3.6,36.6,26,2.7,28.9,3.6,35.9,15.8v46.6h31.6V0H0Z"/>
    <path class="st0" d="M0,122.7v22.2c32.3-6.4,179.7-8.9,0-22.2Z"/>
    <path class="st0" d="M0,84.8v23.6c100.9-5.4,135-12.5,0-23.6Z"/>
  </g>
  <g>
    <path class="st0" d="M188.4,75.9h-17.2v-3.4h38.1v3.4h-17.2v46h-3.7v-46Z"/>
    <path class="st0" d="M218.6,72.5h3.7v22.9h31.6v-22.9h3.7v49.4h-3.7v-23.1h-31.6v23.1h-3.7v-49.4Z"/>
    <path class="st0" d="M270.4,72.5h35.1v3.4h-31.5v19.4h28.3v3.4h-28.3v19.8h31.8v3.4h-35.5v-49.4h0Z"/>
    <path class="st0" d="M173.8,150.4h16.4l9.8,32.4,10.8-32.5h13.4l10.8,32.5,9.8-32.4h16.1l-18.7,56.4h-13.5l-11.2-32.2-11.3,32.2h-13.5l-18.7-56.4Z"/>
    <path class="st0" d="M260.7,177.9v-.2c0-16.8,12-30.1,29.1-30.1s29,14.6,29,31.5,0,2.8-.1,4.2h-38.6c1.6,6.3,6.2,9.5,12.5,9.5s8.6-1.8,12.8-5.9l11.2,9.3c-5.5,7-13.5,11.7-24.9,11.7-18.1,0-30.9-12.1-30.9-29.9ZM299.9,172.9c-.7-6.4-4.6-10.4-10.1-10.4s-8.9,4-10,10.4h20.1Z"/>
    <path class="st0" d="M329.7,150.4h28.7c7,0,12,1.8,15.3,5,2.2,2.3,3.6,5.3,3.6,9.1v.2c0,6.5-3.7,10.3-8.6,12.5,6.8,2.2,11.1,6.1,11.1,13.7v.2c0,9.6-7.8,15.4-21.2,15.4h-28.9v-56h0ZM362.1,167.6c0-3.1-2.5-4.8-7-4.8h-10.2v9.8h9.8c4.7,0,7.4-1.6,7.4-4.9v-.2h0ZM356.7,183.5h-11.8v10.3h12c4.8,0,7.4-1.8,7.4-5.1v-.2c0-3-2.4-5-7.6-5Z"/>
    <path class="st0" d="M391.8,150.4h28.7c7,0,12,1.8,15.3,5,2.2,2.3,3.6,5.3,3.6,9.1v.2c0,6.5-3.7,10.3-8.6,12.5,6.8,2.2,11.1,6.1,11.1,13.7v.2c0,9.6-7.8,15.4-21.2,15.4h-28.9v-56h0ZM424.1,167.6c0-3.1-2.5-4.8-7-4.8h-10.2v9.8h9.8c4.7,0,7.4-1.6,7.4-4.9v-.2h0ZM418.7,183.5h-11.8v10.3h12c4.8,0,7.4-1.8,7.4-5.1v-.2c0-3-2.4-5-7.6-5Z"/>
    <path class="st0" d="M463.2,185.4l-21.4-35h17.7l11.5,20.4,11.6-20.4h17.4l-21.3,34.8v21.2h-15.5v-21h0Z"/>
    <path class="st0" d="M199.1,230.3h3.5l23,49.8h-4l-6.3-13.8h-29.2l-6.3,13.8h-3.8l23-49.8ZM213.8,262.9l-13-28.6-13.1,28.6h26Z"/>
    <path class="st0" d="M225.3,230.6h4.1l15.5,44,14.5-44.1h2.8l14.5,44.1,15.5-44h3.8l-17.9,49.8h-3l-14.5-42.9-14.5,42.9h-3l-17.9-49.8Z"/>
    <path class="st0" d="M320,230.3h3.5l23,49.8h-4l-6.3-13.8h-29.2l-6.3,13.8h-3.8l23-49.8ZM334.7,262.9l-13-28.6-13.1,28.6h26Z"/>
    <path class="st0" d="M355,230.6h20.8c6.1,0,10.9,1.9,13.9,4.9,2.3,2.3,3.7,5.6,3.7,9.2h0c0,8.4-6.1,13.1-14.5,14.3l16.3,21.1h-4.7l-15.7-20.5h-16.2v20.5h-3.7v-49.4h0ZM375.3,256.2c8.3,0,14.4-4.2,14.4-11.3h0c0-6.8-5.2-10.9-14.2-10.9h-16.9v22.2h16.7Z"/>
    <path class="st0" d="M404.3,230.6h16.4c15.5,0,26.3,10.7,26.3,24.6h0c0,14-10.7,24.8-26.3,24.8h-16.4v-49.4ZM408,234v42.6h12.8c13.8,0,22.4-9.4,22.4-21.2h0c0-11.9-8.7-21.5-22.4-21.5h-12.8Z"/>
    <path class="st0" d="M453.8,272.8l2.4-2.8c5.4,5,10.4,7.3,17.7,7.3s12.5-4.2,12.5-9.8h0c0-5.4-2.7-8.4-14-10.7-11.9-2.4-16.7-6.4-16.7-13.9h0c0-7.5,6.7-13.1,15.9-13.1s11.9,2,16.9,6l-2.3,2.9c-4.7-4-9.3-5.6-14.8-5.6s-12.1,4.2-12.1,9.3h0c0,5.4,2.7,8.5,14.4,10.9,11.4,2.3,16.2,6.4,16.2,13.6h0c0,8.1-6.8,13.6-16.4,13.6-7.9,0-14-2.6-19.9-7.9Z"/>
  </g>
</svg>